{"title":"Kid.Cannabis.2014.HDRip.XviD.MP3-Insane098","uid":9991110,"size":1441891062,"categoryP":"porn","categoryS":"movies","magnet":"?xt=urn:btih:e675f40bc4c7442a36a5274b10fffd3033ddbd85&amp;dn=Kid.Cannabis.2014.HDRip.XviD.MP3-Insane098&amp;tr=udp%3A%2F%2Ftracker.openbittorrent.com%3A80&amp;tr=udp%3A%2F%2Fopen.demonii.com%3A1337&amp;tr=udp%3A%2F%2Ftracker.coppersurfer.tk%3A6969&amp;tr=udp%3A%2F%2Fexodus.desync.com%3A6969","seeders":0,"leechers":2,"uploader":"098765432","files":-1,"time":1397850228,"description":"Kid.Cannabis.2014.HDRip.XviD.MP3-Insane098\n\nPlot:\nAn eighteen year old high school drop out and his twenty-seven year old friend start trafficking marijuana across the border of Canada in order to make money and their lives are changed forever.\n &lt;a href=&quot;\nhttp://www.imdb.com/title/tt0780548/&quot; rel=&quot;nofollow&quot; target=&quot;_NEW&quot;&gt;\nhttp://www.imdb.com/title/tt0780548/&lt;/a&gt;\n\nScreenshots: &lt;a href=&quot;\nhttp://i1186.photobucket.com/albums/z372/Insane098/Screenshots/Gallery-KidCannabis2014HDRipXviDMP3-Insane098avi.jpg&quot; rel=&quot;nofollow&quot; target=&quot;_NEW&quot;&gt;\nhttp://i1186.photobucket.com/albums/z372/Insane098/Screenshots/Gallery-KidCannabis2014HDRipXviDMP3-Insane098avi.jpg&lt;/a&gt;\n\nMedia Info:\nGeneral\nComplete name                            : Kid.Cannabis.2014.HDRip.XviD.MP3-Insane098/Kid.Cannabis.2014.HDRip.XviD.MP3-Insane098.avi\nFormat                                   : AVI\nFormat/Info                              : Audio Video Interleave\nFormat profile                           : OpenDML\nFile size                                : 1.32 GiB\nDuration                                 : 1h 49mn\nOverall bit rate                         : 1 717 Kbps\nWriting application                      : Lavf55.33.100\n\nVideo\nID                                       : 0\nFormat                                   : MPEG-4 Visual\nFormat profile                           : Advanced Simple@L5\nFormat settings, BVOP                    : 4\nFormat settings, QPel                    : No\nFormat settings, GMC                     : No warppoints\nFormat settings, Matrix                  : Default (H.263)\nCodec ID                                 : XVID\nCodec ID/Hint                            : XviD\nDuration                                 : 1h 49mn\nBit rate                                 : 1 511 Kbps\nWidth                                    : 720 pixels\nHeight                                   : 400 pixels\nDisplay aspect ratio                     : 1.85:1\nFrame rate                               : 23.976 fps\nColor space                              : YUV\nChroma subsampling                       : 4:2:0\nBit depth                                : 8 bits\nScan type                                : Progressive\nCompression mode                         : Lossy\nBits/(Pixel*Frame)                       : 0.219\nStream size                              : 1.16 GiB (88%)\nWriting library                          : XviD 65\n\nAudio\nID                                       : 1\nFormat                                   : MPEG Audio\nFormat version                           : Version 1\nFormat profile                           : Layer 3\nMode                                     : Joint stereo\nMode extension                           : MS Stereo\nCodec ID                                 : 55\nCodec ID/Hint                            : MP3\nDuration                                 : 1h 49mn\nBit rate mode                            : Constant\nBit rate                                 : 192 Kbps\nChannel count                            : 2 channels\nSampling rate                            : 44.1 KHz\nCompression mode                         : Lossy\nStream size                              : 151 MiB (11%)\nAlignment                                : Aligned on interleaves\nInterleave, duration                     : 26 ms (0.63 video frame)\nWriting library                          : LAME3.99.5","torrent":{"xt":"urn:btih:e675f40bc4c7442a36a5274b10fffd3033ddbd85","amp;dn":"Kid.Cannabis.2014.HDRip.XviD.MP3-Insane098","amp;tr":["udp%3A%2F%2Ftracker.openbittorrent.com%3A80","udp%3A%2F%2Fopen.demonii.com%3A1337","udp%3A%2F%2Ftracker.coppersurfer.tk%3A6969","udp%3A%2F%2Fexodus.desync.com%3A6969"],"infoHash":"e675f40bc4c7442a36a5274b10fffd3033ddbd85","infoHashBuffer":{"type":"Buffer","data":[230,117,244,11,196,199,68,42,54,165,39,75,16,255,253,48,51,221,189,133]},"announce":[],"urlList":[]}}